<svg xmlns="http://www.w3.org/2000/svg" viewBox="0 0 58 58" width="58" height="58">
	<style>
		tspan { white-space:pre }
		.shp0 { fill: #262626 } 
	</style>
	<path id="icon" class="shp0" d="M43.08 39.4C43.72 39.44 44.37 39.49 45 39.51C43.43 41.88 41.3 43.93 38.68 45.45C36.05 46.97 33.21 47.79 30.39 47.97C30.69 47.39 30.99 46.79 31.27 46.19C32.77 46.01 34.26 45.62 35.7 45.02C35.72 44.99 35.73 44.97 35.74 44.94C35.79 44.76 35.95 44.57 35.95 44.57L35.87 44.36L36.05 44.1C36.05 44.1 36.26 43.76 36.39 43.65C36.52 43.55 37.62 42.6 37.86 42.42C38.07 42.26 38.98 41.57 39.38 41.25C39.43 41.21 39.48 41.16 39.51 41.14C39.78 40.9 40.28 40.27 40.46 39.98C40.54 39.84 40.68 39.51 40.81 39.18L40.81 39.18C41.57 39.27 42.33 39.34 43.08 39.4ZM24.47 40.69C24.4 40.68 24.49 40.73 24.55 40.76C24.53 40.72 24.51 40.69 24.47 40.69ZM38.76 39.35C38.95 39.37 39.2 39.35 39.38 39.35L39.44 39.35C39.62 39.35 39.78 39.27 40.07 39.11L40.09 39.1L40.09 39.1C39.86 39.07 39.62 39.04 39.39 39.01C39.16 38.97 38.92 38.94 38.69 38.91C38.85 39.03 38.97 39.14 38.92 39.16C38.78 39.21 38.55 39.32 38.76 39.35ZM24.55 40.76C24.55 40.76 24.56 40.76 24.56 40.77C24.62 40.8 24.6 40.78 24.55 40.76ZM30.47 26.61C30.47 26.61 30.48 26.62 30.5 26.64C30.51 26.61 30.47 26.61 30.47 26.61ZM36.79 30.78L36.75 30.78L36.72 30.93C36.55 31.55 36.38 32.17 36.2 32.79C36.35 32.79 36.48 32.8 36.48 32.8C36.48 32.8 36.64 32.73 36.68 32.53C36.72 32.33 36.84 32.1 36.84 32.1C36.84 32.1 36.88 32.11 36.96 32.12C37 32.04 37.05 31.92 37.05 31.78C37.05 31.5 36.93 31.44 36.93 31.28C36.93 31.13 36.99 30.75 36.99 30.75L36.79 30.78ZM35.96 33.62L35.87 33.9L36 33.88C36 33.88 36.04 33.97 36.08 34.09C36.11 34.03 36.13 33.97 36.13 33.97C36.13 33.97 36.13 33.88 36.09 33.7C36.08 33.67 36.02 33.64 35.96 33.62ZM37.6 27.6L37.56 27.58C37.46 27.96 37.38 28.34 37.28 28.71C37.35 28.75 37.3 28.76 37.57 28.77C37.94 28.79 37.68 28.79 37.96 28.79C38.24 28.79 38.29 28.83 38.34 28.71C38.39 28.59 38.4 28.77 38.4 28.46C38.4 28.15 38.26 28.02 38.16 27.93C38.06 27.85 37.89 27.73 37.6 27.6ZM55.59 36C54.75 39.16 45.57 39.54 33.93 37.21C30.12 48.48 25.21 56.26 22.06 55.41C20.07 54.88 19.19 51.02 19.39 45.32C19.46 45.36 19.53 45.4 19.59 45.43C16.79 43.81 14.37 41.46 12.64 38.46C11.12 35.82 10.3 32.98 10.12 30.14C10.68 30.43 11.24 30.71 11.81 30.99C13.85 31.96 15.99 32.86 18.16 33.66L18.15 33.66L18.16 33.77L17.84 34.33L17.55 34.51L17.63 34.64L17.69 34.9L17.53 34.9C17.53 34.9 17.53 35.27 17.53 35.48C17.53 35.69 17.95 35.77 17.95 35.77L17.82 35.85C17.82 35.85 17.84 35.98 17.97 36.19C18.11 36.4 18.21 36.59 18.26 36.77C18.32 36.95 18.39 37.47 18.39 37.47C18.39 37.47 18.74 38.05 18.89 38.29C19.05 38.52 19.37 38.84 19.5 39.11C19.63 39.37 19.92 39.24 20.46 39.37C21.02 39.5 21.25 39.68 21.25 39.68C21.25 39.68 21.54 39.92 21.72 40.03C21.91 40.13 22.09 40.13 22.59 40.13C23.06 40.13 22.75 40.16 23.33 40.25L23.43 40.26C24.13 40.36 23.58 40.31 24.24 40.62L24.27 40.63C24.43 40.7 24.52 40.74 24.56 40.76C24.62 40.88 24.59 41.11 24.61 41.21C24.64 41.34 24.82 41.18 24.95 41.18C25.05 41.18 25.08 41.26 25.19 41.33C25.22 41.35 25.26 41.37 25.32 41.39C25.55 41.47 25.6 41.31 25.6 41.31L25.87 41.63L26.08 41.91L25.87 42.42L25.69 42.6C25.69 42.6 25.72 42.36 25.69 42.17C25.66 41.99 25.5 42.26 25.5 42.26L25.35 42.76L25.92 43.31L26.09 43.47L26.47 43.81L26.49 43.88L26.71 44.5L26.68 44.71L26.81 45.05C26.81 45.05 26.64 45.12 26.49 45.15C26.44 45.17 26.38 45.18 26.34 45.18C26.26 45.18 26.17 45.27 26.09 45.36C26.01 45.46 25.95 45.57 25.95 45.57C25.95 45.57 26.01 45.69 26.09 45.81C26.15 45.89 26.21 45.97 26.29 46.02C26.32 46.05 26.36 46.06 26.39 46.09C26.42 46.09 26.44 46.1 26.47 46.11C26.47 46.12 26.46 46.13 26.45 46.14L26.45 46.14L26.46 46.14L26.38 46.27L26.38 46.27C26.15 46.67 25.86 47.15 25.53 47.67C23.62 47.29 21.76 46.62 20.03 45.68C20.04 45.69 20.04 45.69 20.04 45.69C20.09 49.13 20.74 51.37 22 51.7C24.38 52.34 28.24 45.98 31.43 36.67C30.09 36.37 28.73 36.04 27.35 35.66C12.74 31.74 1.71 25.53 2.71 21.8C3.24 19.81 7.08 18.92 12.77 19.12C12.71 19.24 12.64 19.35 12.58 19.46C14.2 16.6 16.58 14.11 19.62 12.35C22.66 10.59 25.98 9.77 29.25 9.79C29.13 9.79 29.02 9.79 28.9 9.79C31.57 4.75 34.26 1.86 36.24 2.39C39.96 3.39 39.81 16.07 35.9 30.71C35.53 32.1 35.14 33.45 34.73 34.77C44.37 36.65 51.79 36.48 52.44 34.09C52.78 32.83 51.17 31.16 48.22 29.39C48.22 29.38 48.22 29.37 48.22 29.37C48.17 31.34 47.81 33.29 47.18 35.14C46.57 35.17 46.01 35.18 45.55 35.18L45.55 35.18C45.18 35.18 44.89 35.17 44.72 35.16C44.23 35.14 43.73 35.12 43.23 35.09C43.32 34.78 43.4 34.55 43.41 34.42C43.44 34.26 43.53 34.02 43.53 34.02L42.94 33.88L42.87 33.5L42.63 33.45L42.4 33.89C42.4 33.89 42.22 34.16 42.02 34.27C41.82 34.38 41.55 34.4 41.55 34.4L41.61 34.09C41.5 34.04 41.27 34.13 41.27 34.13L41.25 33.84C41.25 33.84 41.12 33.54 41 33.52C40.89 33.5 40.71 33.25 40.71 33.25C40.71 33.25 40.64 33.16 40.57 32.98C40.57 32.97 40.56 32.97 40.55 32.96L40.59 32.8C40.59 32.8 40.8 32.57 40.98 32.36C41.15 32.15 41.21 32.57 41.39 32.72C41.57 32.87 41.51 33.11 41.51 33.11C41.51 33.11 41.63 33.17 41.78 33.17C41.93 33.17 41.99 33.29 41.99 33.29L42.29 33.4L42.59 33.07C42.59 33.07 42.65 32.86 42.86 32.86C43.07 32.86 42.89 33.13 42.89 33.29C42.89 33.44 43.04 33.29 43.46 33.11C43.88 32.93 43.69 32.96 44.08 32.74C44.47 32.54 44.27 32.6 44.41 32.48C44.57 32.36 44.68 32.24 44.68 32.24L45.01 32.45L45.37 32.39L45.73 32.18L45.73 32.45C45.73 32.45 45.49 32.75 45.64 32.96C45.79 33.17 45.82 33.11 45.73 33.38C45.64 33.65 45.7 33.65 45.73 33.8C45.76 33.91 45.76 33.92 45.76 33.99C47.12 29.53 46.71 24.54 44.2 20.19C43 18.1 41.43 16.36 39.63 14.99C39.68 14.32 39.72 13.66 39.75 13C42.11 14.58 44.15 16.71 45.67 19.34C47.41 22.36 48.22 25.65 48.22 28.91C48.22 28.82 48.22 28.73 48.22 28.64C53.23 31.32 56.12 34.01 55.59 36ZM32.74 15.22C32.74 15.22 32.93 15.11 33.03 15.07C33.12 15.03 33.03 15.02 32.93 14.95C32.84 14.89 32.72 15.01 32.72 15.01C32.72 15.01 32.66 15.06 32.61 15.18C32.61 15.19 32.6 15.2 32.6 15.21C32.55 15.27 32.49 15.11 32.48 15.02C32.46 14.93 32.12 14.99 32.13 14.99C32.14 14.99 32.21 15.16 32.21 15.16C32.21 15.16 32.24 15.33 32.24 15.39C32.24 15.46 32.24 15.58 32.29 15.66C32.34 15.74 32.49 15.87 32.49 15.87L32.6 15.8L32.64 15.77L32.8 15.5L32.93 15.38L32.74 15.22ZM30.6 14.03C30.6 14.03 30.62 13.84 30.73 13.86C30.83 13.88 30.94 13.61 30.94 13.61C30.94 13.61 30.85 13.44 30.75 13.44C30.64 13.44 30.41 13.47 30.41 13.47L30.35 13.34C30.35 13.34 30.22 13.32 30.05 13.38C29.88 13.44 29.84 13.3 29.84 13.3L29.82 13.04L29.59 13.11L29.42 12.96C29.42 12.96 29.36 12.83 29.46 12.83C29.56 12.83 29.71 12.85 29.71 12.85L29.92 12.7L29.84 12.54L29.98 12.37C29.98 12.37 29.69 12.22 29.63 12.33C29.56 12.43 29.33 12.52 29.33 12.52C29.33 12.52 29.35 12.45 29.23 12.29C29.1 12.12 29.29 12.03 29.02 12.1C28.85 12.13 28.72 12.21 28.65 12.27C28.59 12.31 28.55 12.35 28.55 12.35C28.55 12.35 28.26 12.41 28.24 12.52C28.22 12.62 28.6 12.68 28.6 12.68C28.6 12.68 28.62 12.65 28.65 12.63C28.7 12.57 28.8 12.48 28.87 12.56C28.98 12.66 29.06 12.79 29.06 12.79L28.66 13L28.65 12.99L28.45 12.83L28.05 12.83L27.86 12.92L27.48 12.96C27.48 12.96 27.55 13.15 27.55 13.25C27.55 13.36 27.38 13.47 27.38 13.47L27.15 13.45L27.13 13.44L26.89 13.61C26.89 13.61 26.64 13.63 26.53 13.71C26.52 13.73 26.5 13.74 26.48 13.74C26.38 13.77 26.28 13.7 26.28 13.84C26.28 14.01 26.3 14.09 26.18 14.12C26.15 14.12 26.12 14.13 26.08 14.14C25.95 14.17 25.78 14.2 25.78 14.2C25.78 14.2 25.65 14.26 25.55 14.37C25.45 14.47 25.21 14.54 25.21 14.54L25.18 14.53L24.79 14.45L24.25 14.68L24.23 14.72L24.12 14.98L23.76 15.02C23.76 15.02 23.46 15.17 23.44 15.28C23.43 15.33 23.38 15.38 23.33 15.41C23.28 15.45 23.23 15.47 23.23 15.47C23.23 15.47 23.02 15.55 22.92 15.63C22.81 15.71 22.69 15.88 22.69 15.88L22.6 16.07L22.75 16.29L22.41 16.33L22.45 16.49C22.62 16.66 22.73 16.75 22.83 16.66C22.93 16.58 22.87 16.51 23 16.47C23.07 16.44 23.21 16.4 23.32 16.36C23.4 16.33 23.48 16.3 23.52 16.28C23.63 16.24 23.8 16.09 23.92 16.09C24.05 16.09 24.17 16.07 24.17 16.07L24.22 16.03L24.51 15.8L24.85 15.95L25.12 15.91C25.12 15.91 25.12 15.98 25.17 16.03C25.19 16.05 25.21 16.06 25.25 16.07C25.37 16.11 25.56 16.11 25.56 16.11C25.56 16.11 25.67 15.97 25.82 15.97L26.08 15.97L26.19 15.97L26.23 15.78L26.47 15.89L26.51 15.9L26.7 16.05C26.7 16.05 26.61 16.07 26.82 16.16C26.95 16.21 27.07 16.19 27.14 16.17C27.19 16.15 27.22 16.13 27.22 16.13L27.58 16.22C27.58 16.22 27.6 15.88 27.5 15.88C27.39 15.88 27.18 15.78 27.18 15.78L27.41 15.69L27.67 15.65L27.73 15.93L28.13 15.8L28.07 15.57L28.09 15.21L28.47 15.27L28.49 15.52C28.49 15.52 28.56 15.56 28.64 15.57C28.73 15.6 28.82 15.6 28.82 15.52C28.82 15.37 28.74 15.27 28.85 15.27C28.95 15.27 29.16 15.21 29.16 15.21L29.26 15.06L29.41 14.72L29.58 14.97L29.81 14.82L29.77 14.61L30.27 14.38C30.27 14.38 30.57 14.34 30.7 14.34C30.82 14.34 30.86 14.3 30.86 14.3C30.86 14.3 30.95 14.13 30.82 14.13C30.7 14.13 30.6 14.03 30.6 14.03ZM25.57 22.2L25.36 22.3L25.85 22.53L26.08 22.54L26.26 22.55C26.26 22.55 26.39 22.34 26.41 22.13C26.42 22.03 26.45 21.99 26.48 21.96C26.53 21.93 26.59 21.9 26.69 21.84C26.85 21.71 26.81 21.67 26.77 21.54C26.74 21.45 26.57 21.46 26.48 21.47C26.45 21.47 26.43 21.48 26.43 21.48L26.08 21.65L26.05 21.67L25.89 21.45L25.65 21.52L25.42 21.75C25.4 21.73 25.57 21.77 25.57 21.77C25.57 21.77 25.63 21.75 25.8 21.77C25.97 21.8 25.76 21.94 25.76 21.94L25.42 22.03L25.57 22.2ZM26.37 17.26L26.08 17.28L26.08 17.28C26.08 17.28 26.02 17.58 26.08 17.76C26.09 17.77 26.09 17.78 26.1 17.79C26.16 17.91 26.28 18.03 26.48 18.06C26.57 18.07 26.66 18.07 26.77 18.04C26.96 18 27.02 17.99 27.03 17.99L27 18C27 18 27.04 17.99 27.03 17.99L27.16 17.94L27.32 17.87C27.32 17.87 27.59 17.71 27.59 17.56C27.59 17.41 27.36 17.46 27.17 17.46L27.16 17.46C26.98 17.45 27 17.43 26.92 17.22C26.83 17.01 26.83 17.35 26.83 17.35C26.83 17.35 26.75 17.33 26.67 17.14C26.58 16.95 26.56 16.8 26.56 16.8L26.49 16.84L26.25 16.97L26.31 17.09L26.37 17.26ZM26.16 23.31C26.16 23.31 26.24 23.42 26.37 23.59C26.42 23.66 26.46 23.64 26.48 23.59C26.52 23.52 26.54 23.42 26.6 23.42C26.7 23.42 26.62 23.59 26.75 23.57C26.88 23.55 27.15 23.55 27.15 23.55L27.16 23.55L27.34 23.76C27.34 23.76 27.55 23.65 27.57 23.55C27.59 23.44 27.59 23.44 27.76 23.44C27.93 23.44 27.86 23.42 28.07 23.25C28.29 23.09 28.01 22.94 27.84 22.85C27.67 22.77 27.82 22.62 27.82 22.62L27.84 22.32C27.84 22.32 27.84 22.22 27.82 22.07C27.8 21.92 27.76 21.82 27.73 21.67C27.71 21.52 27.57 21.56 27.57 21.56L27.57 21.37C27.57 21.37 27.88 21.37 27.99 21.33C28.09 21.29 27.99 21.08 27.99 21.08C27.99 21.08 27.74 20.98 27.55 20.91C27.36 20.85 27.48 20.81 27.8 20.79C28.11 20.77 27.84 20.62 27.84 20.62L27.59 20.47C27.59 20.47 27.46 20.64 27.25 20.72C27.21 20.74 27.18 20.76 27.15 20.78C27.08 20.86 27.13 20.94 27.06 21.04L27.06 21.21L27.15 21.36L27.21 21.46C27.21 21.46 27.19 21.55 27.15 21.64C27.13 21.69 27.11 21.74 27.08 21.78C27 21.9 27.13 22.05 27.13 22.05C27.13 22.05 27.13 22.33 27.08 22.48C27.04 22.62 26.72 22.35 26.72 22.35L26.66 22.71L26.48 22.71L26.37 22.71L26.41 22.9L26.48 22.95L26.6 23.05L26.72 23.24L26.48 23.15L26.37 23.11L26.16 23.31ZM22.86 13.8L22.5 14.18C22.5 14.18 22.81 14.24 22.92 14.22C22.98 14.21 23.15 14.09 23.33 13.97C23.46 13.88 23.59 13.8 23.68 13.74C23.91 13.59 24 13.63 24 13.63L24.08 13.8L23.58 14.1L24.17 14.01L24.24 13.95L24.46 13.74L24.7 13.46L25.05 13.48L25.19 13.43L25.49 13.32C25.49 13.32 25.75 13.15 25.85 12.96C25.93 12.81 25.99 12.89 26.09 12.92C26.12 12.93 26.15 12.93 26.19 12.92C26.36 12.88 26.28 12.73 26.28 12.58C26.28 12.51 26.37 12.5 26.5 12.5C26.62 12.5 26.76 12.52 26.82 12.47C26.95 12.38 26.72 12.22 26.55 12.17L26.5 12.16C26.36 12.13 26.29 12.11 26.28 11.98C26.26 11.91 26.18 11.88 26.09 11.89C26.01 11.89 25.92 11.92 25.86 11.96C25.73 12.05 25.48 12.07 25.56 11.9C25.57 11.87 25.59 11.87 25.6 11.85C24.95 11.98 24.3 12.16 23.65 12.38C23.8 12.37 23.86 12.38 23.96 12.38C24.08 12.38 23.83 12.53 23.83 12.53C23.83 12.53 23.45 12.66 23.35 12.75L23.33 12.76C23.24 12.84 23.29 12.98 23.29 12.98C23.29 12.98 23.31 12.98 23.33 12.98C23.4 12.98 23.52 12.97 23.6 12.96C23.7 12.93 23.79 12.89 24.06 12.72C24.15 12.67 24.2 12.64 24.24 12.63C24.32 12.59 24.32 12.61 24.42 12.55C24.56 12.47 24.46 12.79 24.46 12.79L24.86 12.64L25.18 12.62L25.3 12.62L25.42 12.38L25.18 12.33L25.05 12.3L25.17 12.17L25.18 12.17C25.24 12.17 25.6 12.17 25.72 12.2C25.85 12.21 25.72 12.36 25.72 12.36L25.68 12.53L25.53 12.8C25.53 12.8 25.34 12.83 25.2 12.83L25.18 12.83C25.04 12.84 24.88 12.99 24.88 12.99L24.59 13.2L24.23 13.2L24.16 13.2L24.1 13.44L23.76 13.4C23.76 13.4 23.72 13.29 23.7 13.14C23.68 12.99 23.53 13.14 23.53 13.14C23.53 13.14 23.47 13.39 23.33 13.5C23.3 13.52 23.27 13.54 23.24 13.54C23.03 13.59 22.86 13.8 22.86 13.8ZM27.44 11.57C27.26 11.58 27.08 11.6 26.9 11.62C26.93 11.63 26.94 11.64 27 11.65C27.13 11.67 27.02 11.71 27.02 11.81C27.02 11.88 27.05 11.91 27.16 11.93C27.21 11.94 27.28 11.95 27.38 11.96C27.68 12 27.49 11.88 27.45 11.63C27.44 11.6 27.44 11.58 27.44 11.57ZM26.31 11.81C26.31 11.81 26.33 11.77 26.35 11.71C26.32 11.71 26.29 11.72 26.26 11.72C26.3 11.76 26.31 11.81 26.31 11.81ZM28.72 11.48C28.7 11.53 28.68 11.58 28.69 11.65C28.71 11.84 28.75 11.65 28.88 11.61C28.95 11.58 28.97 11.55 28.98 11.48C28.9 11.48 28.81 11.48 28.72 11.48ZM16.39 17.07L16.65 17.09L16.99 16.88L17.32 16.98L17.13 17.07C17.13 17.07 16.95 17.34 16.9 17.47C16.86 17.59 17.41 17.57 17.41 17.57C17.41 17.57 17.55 17.17 17.55 17C17.55 16.84 18 16.73 18 16.73L18.12 16.39L18.33 16.54C18.33 16.54 18.46 16.31 18.44 16.2C18.41 16.1 18.04 16.07 18.04 16.07L18.41 15.89L18.79 15.99L18.71 16.73L19.08 16.73L19.17 16.86C19.17 16.86 18.64 17.15 18.54 17.15C18.44 17.15 18.2 17.43 18.2 17.43L17.99 17.66C17.99 17.66 18.08 17.79 18.24 17.83C18.41 17.87 18.41 17.97 18.41 17.97C18.41 17.97 18.64 17.89 18.64 17.76C18.64 17.64 18.56 17.6 18.56 17.6C18.56 17.6 18.74 17.38 18.87 17.24C19 17.09 19.67 16.79 19.8 16.65C19.92 16.5 19.84 16.4 19.84 16.4L20.15 16.2C20.15 16.2 20.24 15.8 20.28 15.7C20.32 15.6 20.76 15.38 21.08 15.15C21.39 14.92 21.44 14.9 21.85 14.79C22.28 14.69 21.98 14.64 21.96 14.52C21.94 14.39 21.6 14.68 21.6 14.68L21.1 14.53C21.1 14.53 21.31 14.53 21.52 14.37C21.73 14.2 21.68 14.33 21.83 14.26C21.98 14.2 21.94 14.14 21.94 14.14L22.17 14.14C22.17 14.14 22.36 13.95 22.47 13.78C22.57 13.61 22.8 13.29 22.8 13.29C22.8 13.29 22.28 13.59 22.17 13.63C22.07 13.67 21.9 13.59 21.77 13.59C21.64 13.59 21.46 13.8 21.24 13.88C21.03 13.97 20.8 14.1 20.8 14.1L20.49 14.03L20.24 14.14L19.63 14.39C19.63 14.39 19.73 14.31 19.99 14.16C20.24 14.01 20.49 13.86 20.49 13.86L20.89 13.76L20.92 13.55C20.76 13.64 20.6 13.72 20.44 13.81C18.9 14.71 17.54 15.82 16.39 17.07ZM32.22 34.24C32.65 32.89 33.05 31.49 33.44 30.05C36.85 17.31 37.24 6.34 34.32 5.56C33.07 5.22 31.4 6.83 29.64 9.79C29.61 9.79 29.6 9.79 29.58 9.79C31.56 9.84 33.51 10.19 35.37 10.84C35.41 11.45 35.41 12.01 35.41 12.46C35.41 12.46 35.41 12.46 35.41 12.46C35.41 12.83 35.4 13.13 35.4 13.3C35.34 14.9 35.19 16.54 34.98 18.19C34.91 18.16 34.82 18.14 34.74 18.13C34.51 18.12 34.51 18.13 34.51 18.13C34.51 18.13 34.32 17.97 34.25 17.86C34.18 17.74 34.04 17.65 33.78 17.56C33.52 17.47 33.54 17.66 33.54 17.66C33.54 17.66 33.29 17.83 32.98 17.8C32.68 17.77 32.6 18.1 32.6 18.13L32.6 18.13L32.37 18.32C32.37 18.32 32.25 18.53 32.11 18.53C31.97 18.53 31.87 18.57 31.87 18.57C31.87 18.57 31.8 18.83 31.8 18.97C31.8 19.11 31.66 19.13 31.66 19.13C31.66 19.13 31.48 19.16 31.36 19.21C31.24 19.26 31.12 19.34 31 19.4C30.87 19.47 30.93 19.53 30.68 19.67C30.44 19.8 30.35 19.86 30.35 19.86L30.02 19.93L30.19 20.1L29.93 20.15C29.93 20.15 29.91 20.31 29.95 20.43C29.98 20.55 30.25 20.57 30.25 20.57C30.25 20.57 30.08 20.71 29.86 20.8C29.66 20.89 29.66 20.92 29.67 21.01C29.69 21.1 29.81 21.29 30.16 21.38C30.51 21.47 30.26 21.36 30.42 21.27C30.58 21.18 30.75 21.13 30.75 21.13C30.75 21.13 30.96 21.48 30.96 21.64C30.96 21.79 30.91 22.09 30.93 22.2C30.95 22.3 31.12 22.16 31.12 22.16L30.96 22.34C30.96 22.34 31 22.65 31 22.74C31 22.83 31.31 22.77 31.31 22.69C31.31 22.6 31.48 22.46 31.74 22.44C32 22.43 31.97 22.39 31.97 22.18C31.97 21.97 32.02 21.69 32.02 21.69L32.32 21.61C32.32 21.61 32.49 21.48 32.6 21.37C32.63 21.34 32.65 21.32 32.67 21.29C32.7 21.24 32.66 21.18 32.6 21.13C32.54 21.08 32.48 21.04 32.44 21C32.35 20.91 32.32 20.63 32.32 20.46C32.32 20.28 32.32 20.35 32.34 20.23C32.35 20.12 32.48 20.11 32.6 20.08C32.61 20.08 32.62 20.08 32.63 20.07C32.75 20.04 32.91 19.83 33.13 19.72C33.36 19.61 33.01 19.6 33.01 19.6C33.01 19.6 33.05 19.41 33.08 19.25C33.12 19.09 33.57 19.3 33.57 19.3L33.74 19.51L33.53 19.67L33.29 20.03L32.95 20.49L33.23 21.22C33.23 21.22 33.47 21.34 33.62 21.32C33.79 21.3 33.96 21.22 34.06 21.13C34.1 21.09 34.33 21.03 34.57 20.98L34.49 21.47C34.41 21.5 34.32 21.43 34.12 21.43C33.85 21.43 33.78 21.56 33.53 21.58C33.28 21.61 33.43 21.78 33.43 21.9C33.43 22.03 33.78 22.18 33.78 22.18L33.51 22.35C33.51 22.35 33.38 22.08 33.14 22.1C32.9 22.13 32.99 22.45 32.84 22.57C32.69 22.69 32.94 23.07 32.94 23.07C32.94 23.07 32.76 23.09 32.6 23.18C32.58 23.19 32.56 23.2 32.54 23.21C32.37 23.33 32.32 23.24 32.32 23.24C32.32 23.24 32.22 23.09 32.1 23.09C31.98 23.09 31.8 23.29 31.68 23.33C31.55 23.38 31.13 23.33 31.13 23.33L30.86 23.04L30.64 23.26C30.64 23.26 30.44 23.21 30.32 23.06C30.2 22.91 30.32 22.94 30.29 22.82C30.27 22.69 30.22 22.69 30.22 22.69L30.34 22.5L30.66 22.3C30.66 22.3 30.73 21.86 30.59 21.66C30.44 21.46 30.44 21.86 30.44 21.86L29.94 22.18L29.97 22.84L29.87 23.14L29.68 23.09L29.55 23.24C29.55 23.24 29.43 23.17 29.23 23.09C29.04 23.02 28.69 23.34 28.69 23.34L28.65 23.45L28.57 23.63L28.3 23.58L28.15 23.76C28.15 23.76 27.98 23.76 27.85 23.76C27.72 23.76 27.8 23.98 27.8 23.98C27.8 23.98 27.72 24.08 27.62 24.12L27.58 24.06C27.43 24.04 27.4 24.06 27.31 24.13C27.27 24.16 27.21 24.18 27.15 24.2C27.08 24.21 27.02 24.22 27.02 24.22L26.89 23.9C26.89 23.9 26.8 23.73 26.72 23.86C26.63 23.99 26.66 24.08 26.66 24.08L26.7 24.3L26.52 24.32L26.48 24.3L26.39 24.28L26.08 24.09L26.04 24.06C26.04 24.06 25.82 24.03 25.86 24.17C25.89 24.31 26.07 24.49 26.07 24.58C26.07 24.59 26.08 24.6 26.09 24.61C26.14 24.67 26.4 24.65 26.4 24.76C26.4 24.89 26.23 25.04 26.23 25.04C26.23 25.04 26.36 25.14 26.36 25.31C26.36 25.47 26.32 25.7 26.29 25.81C26.25 25.91 26.16 25.88 26.13 25.99C26.12 26.02 26.1 26.04 26.08 26.07C26.03 26.17 25.95 26.26 25.95 26.26C25.95 26.26 25.68 26.33 25.59 26.29C25.49 26.26 25.42 26.13 25.26 26.09C25.23 26.08 25.2 26.08 25.17 26.09C25.11 26.1 25.1 26.13 24.94 26.02C24.72 25.88 24.65 25.82 24.51 25.77C24.37 25.72 24.29 25.59 24.29 25.59C24.29 25.59 24.26 25.57 24.23 25.55C24.16 25.52 24.06 25.47 24.01 25.47C23.92 25.47 23.77 25.63 23.77 25.63C23.77 25.63 23.81 25.77 23.77 25.95C23.74 26.13 23.81 26.22 23.7 26.29C23.6 26.37 23.58 26.31 23.56 26.46C23.54 26.6 23.63 26.53 23.49 26.67C23.36 26.8 23.42 26.8 23.32 26.87C23.31 26.87 23.3 26.88 23.29 26.89C23.14 26.98 23.09 26.96 23 27.11C22.91 27.25 22.88 27.41 22.88 27.54C22.88 27.66 23.27 28.11 23.27 28.11C23.27 28.11 23.29 28.12 23.32 28.13C23.39 28.15 23.49 28.19 23.49 28.28C23.49 28.41 23.34 28.46 23.49 28.55C23.63 28.64 23.56 28.66 23.65 28.71C23.69 28.74 23.96 28.8 24.23 28.85C24.52 28.91 24.81 28.96 24.81 28.96L25.01 28.82L25.18 28.82L25.35 28.82L25.44 28.51L25.71 28.5L25.73 28.21C25.73 28.21 25.7 27.92 25.78 27.92C25.83 27.92 25.96 27.84 26.08 27.77C26.21 27.69 26.32 27.61 26.32 27.61C26.32 27.61 26.39 27.62 26.48 27.64C26.62 27.66 26.81 27.67 26.86 27.63C26.95 27.56 27.15 27.27 27.15 27.27C27.15 27.27 27.11 27.04 27.16 26.94C27.17 26.91 27.19 26.89 27.22 26.89C27.36 26.89 27.71 26.91 27.81 27.02C27.92 27.12 28.19 27.27 28.3 27.25C28.39 27.23 28.54 27.14 28.65 27.06L28.69 27.03C28.73 27 28.84 26.93 28.96 26.84C28.96 26.85 28.96 26.85 28.96 26.85C28.96 26.85 29.21 26.89 29.29 27.02C29.36 27.14 29.39 27.38 29.36 27.52C29.32 27.66 29.59 27.79 29.68 27.9C29.77 28 30.2 28.58 30.34 28.76C30.49 28.94 30.78 29.26 30.78 29.26L30.92 29.6L30.62 29.82C30.62 29.82 30.29 29.8 30.18 29.77C30.08 29.73 29.99 29.84 29.99 29.84C29.99 29.84 29.91 29.8 29.75 29.66C29.59 29.52 29.7 29.68 29.5 29.79C29.31 29.89 29.75 30.06 29.86 30.15C29.97 30.24 30.11 30.4 30.18 30.49C30.26 30.58 30.44 30.46 30.44 30.31C30.44 30.17 30.46 30.04 30.46 30.04L30.78 30.04L30.98 29.81L31.14 29.67L31.21 29.47L31.09 29.11C31.09 29.11 31.31 29.03 31.39 29.03C31.48 29.03 31.57 29.3 31.57 29.3L31.66 29.34C31.66 29.34 31.66 29.12 31.61 29.03C31.55 28.94 31.27 28.73 31.27 28.73C31.27 28.73 30.94 28.6 30.85 28.53C30.76 28.46 30.55 28.08 30.44 27.89C30.33 27.69 30.4 27.67 30.38 27.58C30.37 27.49 30.18 27.38 30.11 27.26C30.04 27.13 30.06 26.95 30.06 26.95C30.06 26.95 30.22 26.85 30.4 26.74C30.47 26.7 30.5 26.67 30.5 26.66C30.57 26.73 30.76 26.95 30.76 27.08C30.76 27.24 30.83 27.42 30.87 27.53C30.9 27.63 31.12 27.72 31.41 27.78C31.7 27.83 31.6 28.03 31.6 28.03C31.6 28.03 31.87 28.35 31.91 28.57C31.94 28.79 31.94 28.89 31.96 29.16C31.98 29.43 32.11 29.47 32.19 29.72C32.28 29.97 32.32 29.97 32.37 30.17C32.4 30.26 32.41 30.35 32.45 30.44C32.27 31.1 32.08 31.77 31.88 32.44C31.71 32.59 31.59 33.16 31.59 33.16C31.59 33.16 31.54 33.2 31.46 33.21L31.46 33.21L31.09 33.12L31.09 33.12C30.9 32.92 30.46 32.84 30.23 32.69C30 32.53 30 32.19 29.81 32.03C29.63 31.87 29.5 31.95 29.5 31.95C29.5 31.95 28.98 31.85 28.87 31.72C28.81 31.65 28.72 31.54 28.64 31.46C28.58 31.38 28.53 31.32 28.53 31.32C28.53 31.32 28.58 31.27 28.64 31.22C28.72 31.15 28.82 31.08 28.89 31.06C29.02 31.03 28.84 30.77 28.68 30.51C28.52 30.24 29.1 30.16 29.08 30.03C29.05 29.91 28.8 29.9 28.64 29.83L28.63 29.82C28.47 29.74 28.11 29.82 28.11 29.82L27.61 29.72C27.61 29.72 27.45 29.77 27.32 29.82C27.27 29.84 27.21 29.83 27.15 29.8C27.04 29.76 26.91 29.64 26.85 29.5C26.78 29.36 26.63 29.39 26.48 29.38C26.41 29.37 26.34 29.36 26.27 29.32C26.2 29.28 26.14 29.26 26.08 29.26C25.97 29.27 25.86 29.33 25.72 29.35C25.55 29.37 25.32 29.43 25.17 29.45C25.14 29.45 25.11 29.46 25.09 29.46C24.96 29.46 24.8 29.56 24.62 29.67C24.44 29.77 24.38 29.38 24.38 29.38C24.38 29.38 24.33 29.38 24.23 29.36C24.12 29.34 23.96 29.3 23.75 29.22C23.36 29.06 23.54 28.82 23.54 28.82C23.54 28.82 23.47 28.88 23.32 29.01C23.27 29.06 23.22 29.11 23.15 29.16C22.89 29.4 22.81 29.51 22.57 29.48C22.34 29.45 22.21 29.56 22.05 29.64C21.91 29.71 21.58 30.27 21.54 30.36C18.41 29.29 15.32 28.02 12.53 26.54C12.41 26.47 12.21 26.36 11.97 26.23C11.97 26.23 11.97 26.23 11.97 26.23C11.55 25.99 11 25.67 10.42 25.29C10.79 23.34 11.47 21.46 12.42 19.71C12.41 19.74 12.4 19.76 12.39 19.78C8.95 19.83 6.73 20.48 6.39 21.74C5.61 24.66 15.28 29.8 27.99 33.22C29.43 33.59 30.84 33.93 32.22 34.24ZM28.36 28.86C28.27 28.89 28.27 29.09 28.27 29.09C28.27 29.09 28.34 29.17 28.43 29.19C28.49 29.2 28.56 29.2 28.65 29.18C28.69 29.17 28.74 29.15 28.8 29.14C28.97 29.09 28.87 29 28.91 28.88C28.94 28.75 28.94 28.59 29.01 28.47C29.08 28.35 28.87 28.26 28.87 28.26C28.87 28.26 28.71 28.49 28.65 28.58L28.64 28.59C28.59 28.68 28.45 28.82 28.36 28.86ZM28.65 27.91C28.74 27.9 28.95 27.84 28.99 27.73C29.04 27.59 29.03 27.66 29.08 27.5C29.14 27.34 28.94 27.55 28.94 27.55L28.71 27.69L28.65 27.83L28.61 27.92C28.61 27.92 28.62 27.92 28.65 27.91Z" />
</svg>