<svg xmlns="http://www.w3.org/2000/svg" viewBox="0 0 58 58" width="58" height="58">
	<style>
		tspan { white-space:pre }
		.shp0 { fill: #262626 } 
	</style>
	<path id="icon" class="shp0" d="M55 16.9C56.03 16.71 56.33 15.37 55.48 14.75C54.03 13.69 52.16 12.65 50.76 12.96L53.67 5.74C54.06 4.77 53.09 3.79 52.11 4.18L44.88 7.08C45.19 5.68 44.15 3.82 43.09 2.37C42.48 1.52 41.14 1.81 40.95 2.85C40.39 5.82 39.01 9.16 38.31 10.74C39.09 11.23 39.81 11.82 40.48 12.49L45.36 17.36C46.03 18.03 46.61 18.75 47.11 19.53C48.69 18.83 52.03 17.45 55 16.9ZM43.73 18.99L38.86 14.11C36.73 11.99 34 10.97 31.29 10.97C27.58 10.97 23.92 12.87 21.91 16.45L16.56 25.96L22.37 35.53L14.02 30.47L2.25 51.41C1.01 53.61 2.76 56 4.91 56C5.4 56 5.91 55.87 6.42 55.59L15.58 50.45L12.5 44.75L19.25 48.39L38.05 37.82L32.89 28.81L43.17 34.7C47.77 30.73 48.23 23.49 43.73 18.99Z" />
</svg>