<svg xmlns="http://www.w3.org/2000/svg" viewBox="0 0 49 46" width="49" height="46">
	<style>
		tspan { white-space:pre }
		.shp0 { fill: #252525 } 
	</style>
	<path id="icon" class="shp0" d="M46.06 7.01C45.56 6.37 44.79 5.99 43.97 5.99L16.85 5.99C16 5.99 15.2 6.4 14.7 7.08C14.2 7.77 14.06 8.66 14.32 9.47L19.31 25.08C19.53 25.76 20.17 26.23 20.89 26.23L41.19 26.23C41.96 26.23 42.62 25.7 42.8 24.96L46.56 9.28C46.75 8.49 46.57 7.65 46.06 7.01ZM45.42 29.18L19.24 29.18C18.31 29.18 17.49 28.59 17.21 27.71L10 5.35C9.32 3.24 7.37 1.82 5.15 1.82L3.58 1.82C2.24 1.82 1.15 2.91 1.15 4.25C1.15 5.59 2.24 6.68 3.58 6.68L5.15 6.68C5.26 6.68 5.35 6.75 5.38 6.84L12.59 29.2C13.52 32.09 16.19 34.04 19.24 34.04L45.42 34.04C46.76 34.04 47.85 32.95 47.85 31.61C47.85 30.27 46.76 29.18 45.42 29.18ZM20.96 36.84C18.82 36.84 17.09 38.57 17.09 40.71C17.09 42.85 18.82 44.58 20.96 44.58C23.09 44.58 24.83 42.85 24.83 40.71C24.83 38.57 23.09 36.84 20.96 36.84ZM41.29 36.84C39.15 36.84 37.42 38.57 37.42 40.71C37.42 42.85 39.15 44.58 41.29 44.58C43.42 44.58 45.16 42.85 45.16 40.71C45.16 38.57 43.42 36.84 41.29 36.84Z" />
</svg>