<svg xmlns="http://www.w3.org/2000/svg" viewBox="0 0 57 51" width="57" height="51">
	<style>
		tspan { white-space:pre }
		.shp0 { fill: #262626 } 
	</style>
	<path id="icon" class="shp0" d="M31.28 17.73C31.77 16.57 32.09 15.22 32.16 13.81C32.27 12.4 32.07 10.92 31.65 9.49C31.21 8.07 30.54 6.68 29.6 5.49C28.68 4.29 27.52 3.28 26.3 2.62C25.08 1.96 23.82 1.67 22.94 1.7C22.51 1.69 22.13 1.81 21.91 1.87C21.68 1.94 21.56 1.98 21.56 1.98C21.56 1.98 21.59 2.1 21.64 2.33C21.69 2.54 21.69 2.91 21.73 3.25C21.76 4 21.68 4.91 21.59 5.9C21.43 7.84 21.47 10.12 22.18 12.36C22.53 13.48 22.98 14.59 23.6 15.62C24.18 16.65 24.89 17.61 25.62 18.43C26.27 19.15 27.75 20.84 28.28 21.26C28.42 20.31 28.54 19.33 28.56 18.34C28.62 17.64 28.57 16.95 28.56 16.26C28.55 15.58 28.42 14.91 28.36 14.26C28.25 13.62 28.09 13.01 27.96 12.42C27.76 11.86 27.56 11.33 27.39 10.83C27.14 10.37 26.91 9.95 26.7 9.57C26.53 9.18 26.23 8.93 26.06 8.68C25.68 8.19 25.45 7.92 25.45 7.92C25.45 7.92 25.7 8.17 26.11 8.63C26.31 8.87 26.62 9.11 26.83 9.49C27.07 9.86 27.33 10.27 27.62 10.72C27.84 11.21 28.07 11.74 28.33 12.3C28.5 12.89 28.71 13.51 28.88 14.16C28.99 14.82 29.16 15.5 29.23 16.2C29.29 16.91 29.39 17.62 29.39 18.34C29.42 19.15 29.4 19.96 29.37 20.75C29.43 20.68 29.51 20.63 29.57 20.55C30.17 19.87 30.79 18.89 31.28 17.73ZM24.9 23.68C25 23.86 25.09 24.02 25.19 24.2C19.81 25.22 15.44 29.1 13.71 34.21L14.07 34.25C14.52 34.25 15.19 34.36 16.35 34.57C16.38 34.22 16.5 33.89 16.71 33.61C17.57 32.48 18.81 31.88 20.31 31.88C22.56 31.89 24.95 31.95 27.36 32.68C28.63 33.07 29.93 32.99 31.25 32.46C35.05 30.94 38.38 31.08 41.08 32.84C41.41 33.06 41.76 33.29 42.11 33.53C40.19 28.64 35.81 24.99 30.49 24.12C30.63 23.87 30.77 23.61 30.93 23.35C31.08 23.11 31.38 22.47 31.34 22.32C31.32 22.22 31.32 22.13 31.32 22.04C30.78 22.72 30.29 23.41 29.86 24.06C29.6 24.03 29.33 24.02 29.06 24C29.2 22.98 29.32 21.89 29.37 20.75C29.28 20.84 29.21 20.93 29.11 21.01C28.94 21.13 28.68 22.03 28.62 22.4C28.52 22.93 28.42 23.44 28.31 23.94C28.22 23.94 28.13 23.92 28.04 23.92C27.26 23.92 26.5 23.98 25.76 24.09C25.38 23.53 24.97 22.95 24.51 22.37C24.5 22.46 24.51 22.55 24.49 22.64C24.45 22.8 24.75 23.44 24.9 23.68ZM33.66 19.52C34.05 19.15 34.49 18.85 34.88 18.53C35.3 18.24 35.73 17.99 36.12 17.74C36.55 17.55 36.94 17.37 37.31 17.2C37.7 17.08 38.06 16.98 38.38 16.89C38.69 16.77 38.98 16.79 39.21 16.75C39.68 16.7 39.94 16.67 39.94 16.67C39.94 16.67 39.68 16.72 39.22 16.8C38.99 16.86 38.7 16.86 38.41 17C38.1 17.11 37.76 17.24 37.39 17.37C37.05 17.56 36.67 17.77 36.27 17.99C35.9 18.26 35.51 18.53 35.13 18.84C34.77 19.18 34.37 19.5 34.02 19.89C33.67 20.27 33.3 20.64 32.98 21.07C32.5 21.64 32.08 22.26 31.68 22.87C32.2 22.89 33.88 22.67 34.62 22.58C35.44 22.48 36.32 22.29 37.17 21.99C38.03 21.71 38.84 21.3 39.6 20.84C41.12 19.92 42.28 18.64 43.15 17.45C43.59 16.84 44 16.29 44.39 15.88C44.58 15.7 44.77 15.49 44.9 15.39C45.04 15.29 45.12 15.24 45.12 15.24C45.12 15.24 45.07 15.15 44.98 14.99C44.88 14.85 44.72 14.59 44.47 14.39C43.98 13.93 43.12 13.47 42.1 13.24C41.08 13.01 39.91 13 38.79 13.23C37.66 13.44 36.59 13.89 35.63 14.49C34.68 15.09 33.83 15.84 33.18 16.7C32.53 17.54 32.04 18.46 31.73 19.36C31.44 20.27 31.3 21.14 31.31 21.83C31.31 21.9 31.32 21.97 31.32 22.04C31.7 21.57 32.09 21.11 32.51 20.65C32.86 20.25 33.28 19.89 33.66 19.52ZM11.43 16.21C11.83 16.62 12.23 17.17 12.67 17.78C13.55 18.97 14.71 20.24 16.23 21.17C16.98 21.63 17.8 22.04 18.66 22.32C19.51 22.62 20.39 22.81 21.21 22.91C21.95 23 23.63 23.22 24.14 23.2C23.75 22.58 23.32 21.97 22.84 21.39C22.53 20.97 22.15 20.6 21.81 20.21C21.46 19.83 21.06 19.51 20.7 19.17C20.31 18.86 19.92 18.59 19.55 18.32C19.16 18.1 18.78 17.89 18.44 17.7C18.06 17.56 17.72 17.44 17.42 17.32C17.12 17.19 16.83 17.19 16.61 17.13C16.15 17.05 15.88 17 15.88 17C15.88 17 16.15 17.03 16.61 17.08C16.85 17.12 17.14 17.1 17.45 17.21C17.77 17.3 18.12 17.41 18.51 17.52C18.88 17.69 19.28 17.88 19.71 18.07C20.1 18.32 20.52 18.57 20.94 18.86C21.33 19.18 21.77 19.48 22.16 19.85C22.55 20.22 22.96 20.57 23.32 20.98C23.74 21.43 24.13 21.9 24.51 22.37C24.51 22.3 24.52 22.23 24.52 22.15C24.53 21.47 24.39 20.6 24.09 19.69C23.79 18.79 23.3 17.86 22.64 17.03C22 16.17 21.15 15.42 20.2 14.82C19.24 14.22 18.17 13.77 17.03 13.56C15.92 13.33 14.75 13.33 13.73 13.56C12.71 13.8 11.84 14.26 11.35 14.72C11.1 14.92 10.94 15.18 10.85 15.32C10.76 15.48 10.71 15.56 10.71 15.56C10.71 15.56 10.78 15.62 10.92 15.72C11.06 15.82 11.25 16.03 11.43 16.21ZM48.37 41.3C46.05 38.15 43.01 35.8 39.8 33.71C37.2 32.02 34.24 32.38 31.49 33.49C29.8 34.16 28.12 34.24 26.5 33.75C24.33 33.1 22.16 33.03 19.95 33.02C19 33.02 18.21 33.35 17.65 34.09C17.33 34.51 19.91 36.24 22.13 36.24C21.72 37.06 14.56 35.32 13.61 35.39L8.19 34.7C6.27 34.54 6.27 33.82 4.38 34.88C4.32 34.92 4.22 34.92 4.14 34.92C3.09 34.86 2.5 35.19 1.91 35.89C1.57 36.29 1.6 36.78 1.78 37.25C1.97 37.74 2.45 37.62 2.85 37.77C5.27 38.73 6.05 39.2 9.33 40.01C11.67 40.59 13.94 41.29 16.28 41.82C17.24 42.04 18.22 42.2 19.09 42.69C20.94 43.73 22.9 44.05 25.01 43.95C27.4 43.84 29.8 43.94 32.2 43.92C36.42 43.9 39.62 45.59 41.78 49.3L55.33 49.27C52.38 45.81 51.07 44.97 48.37 41.3Z" />
</svg>